<?xml version="1.0" standalone="no"?>
<!DOCTYPE svg PUBLIC "-//W3C//DTD SVG 20010904//EN"
 "http://www.w3.org/TR/2001/REC-SVG-20010904/DTD/svg10.dtd">
<svg version="1.0" xmlns="http://www.w3.org/2000/svg"
 width="700.000000pt" height="700.000000pt" viewBox="0 0 700.000000 700.000000"
 preserveAspectRatio="xMidYMid meet">
<metadata>
Created by potrace 1.14, written by Peter Selinger 2001-2017
</metadata>
<g transform="translate(0.000000,700.000000) scale(0.100000,-0.100000)"
fill="#000000" stroke="none">
<path d="M3265 6994 c-729 -57 -1396 -317 -1950 -760 -132 -106 -378 -345
-483 -469 -457 -543 -727 -1170 -813 -1890 -18 -145 -18 -605 0 -750 70 -585
251 -1083 567 -1560 266 -402 641 -770 1046 -1024 457 -287 945 -457 1503
-523 142 -17 586 -17 730 0 678 79 1260 315 1795 727 148 114 479 446 594 595
360 464 585 967 690 1540 39 216 51 358 51 620 0 331 -28 567 -105 870 -300
1185 -1238 2155 -2407 2489 -337 96 -567 130 -923 135 -135 2 -267 2 -295 0z
m-5 -3185 l0 -191 23 16 c74 55 179 66 252 29 92 -48 138 -127 138 -238 0 -86
-27 -150 -86 -200 -52 -45 -95 -58 -173 -53 -52 3 -72 10 -109 36 l-45 32 0
-30 0 -30 -70 0 -70 0 0 410 0 410 70 0 70 0 0 -191z m700 -219 l0 -410 -75 0
-75 0 0 410 0 410 75 0 75 0 0 -410z m-1690 63 c0 -293 -2 -321 -20 -361 -39
-85 -103 -122 -215 -122 -61 0 -82 5 -126 28 -62 33 -65 45 -30 124 l20 48 37
-25 c50 -34 112 -34 144 -1 34 37 39 86 40 369 l0 257 75 0 75 0 0 -317z
m1970 282 c58 -30 67 -90 21 -136 -44 -44 -108 -33 -137 24 -20 37 -3 91 34
112 35 18 47 18 82 0z m850 -175 l0 -90 55 0 55 0 0 -55 0 -55 -55 0 -55 0 0
-119 c0 -132 7 -148 58 -138 27 6 30 3 45 -47 21 -67 22 -62 -14 -75 -51 -18
-130 -13 -166 9 -57 34 -67 68 -71 228 l-4 142 -29 0 c-28 0 -29 1 -29 55 0
54 0 55 30 55 l30 0 0 90 0 90 75 0 75 0 0 -90z m-2262 -100 c57 -25 106 -71
135 -125 16 -30 21 -57 21 -110 0 -84 -24 -136 -85 -188 -53 -46 -116 -67
-199 -67 -83 0 -146 21 -199 67 -61 52 -85 104 -85 188 -1 80 20 129 76 181
87 82 223 104 336 54z m1892 8 c67 -20 72 -25 56 -56 -33 -62 -39 -66 -74 -48
-67 34 -153 12 -126 -32 12 -18 24 -25 127 -72 81 -38 102 -68 95 -142 -10
-96 -81 -148 -204 -148 -80 0 -125 12 -171 47 l-32 23 30 49 31 49 46 -29 c52
-33 111 -39 136 -13 35 34 16 58 -78 102 -104 49 -130 79 -123 145 10 114 138
170 287 125z m-442 -240 l-3 -243 -72 -3 -73 -3 0 246 0 245 75 0 75 0 -2
-242z"/>
<path d="M3319 3537 c-94 -63 -65 -222 45 -242 76 -15 142 34 153 111 15 115
-104 194 -198 131z"/>
<path d="M2633 3540 c-134 -81 -40 -286 109 -238 74 23 111 116 75 188 -32 63
-122 88 -184 50z"/>
</g>
</svg>
